<svg xmlns="http://www.w3.org/2000/svg" xmlns:xlink="http://www.w3.org/1999/xlink" width="76" height="76" viewBox="0 0 76 76"><defs><style>.a,.h{fill:#306eb5;}.b{fill:#4283d0;}.c{clip-path:url(#a);}.d{fill:#ff6803;}.e{fill:#ffb900;stroke:#306eb5;stroke-width:2px;}.f{fill:#fff;}.g{fill:#f0f0f0;}.h{font-size:15px;font-family:SourceSansPro-SemiBold, Source Sans Pro;font-weight:600;}.i{stroke:none;}.j{fill:none;}</style><clipPath id="a"><circle class="a" cx="38" cy="38" r="38" transform="translate(1054 154)"/></clipPath></defs><g transform="translate(-1054 -154)"><circle class="b" cx="38" cy="38" r="38" transform="translate(1054 154)"/><g class="c"><path class="a" d="M.32-.265,67.735,10.953l.4,37.085L.344,48.092Z" transform="translate(1059.871 204.398) rotate(-30)"/></g><g transform="translate(1611 -14005)"><path class="d" d="M-1,0H63L55,12.348,63,24H-1L7,11.781Z" transform="translate(-550 14185)"/><g class="e" transform="translate(-536 14180)"><circle class="i" cx="17" cy="17" r="17"/><circle class="j" cx="17" cy="17" r="18"/></g><circle class="f" cx="14" cy="14" r="14" transform="translate(-533 14183)"/><path class="g" d="M14,0a14,14,0,0,1,0,28c-.051-.17,0-13.891,0-14S14.047-.218,14,0Z" transform="translate(-533 14183)"/><text class="h" transform="translate(-523 14202)"><tspan x="0" y="0"></tspan></text></g></g></svg>