<svg xmlns="http://www.w3.org/2000/svg" width="422.534" height="116" viewBox="0 0 422.534 116"><defs><style>.a,.c,.d,.g,.l{fill:none;}.b{fill:#4283d0;}.c{stroke:#4283d0;}.d{stroke:#fff;}.e{fill:#ff6803;}.f{fill:#fff;}.g{stroke:#ff6803;}.h,.i,.j,.k{stroke:none;}.i{fill:#4283d0;}.j{fill:#ff6803;}.k{fill:#fff;}</style></defs><g transform="translate(-743.975 -341)"><g class="a" transform="matrix(0.809, -0.588, 0.588, 0.809, 874, 441.409)"><path class="h" d="M4.5,0,9,8H0Z"/><path class="i" d="M 4.5 2.039735317230225 L 1.709851264953613 7 L 7.290148735046387 7 L 4.5 2.039735317230225 M 4.5 0 L 9 8 L 0 8 L 4.5 0 Z"/></g><g class="a" transform="translate(1078.975 387.127) rotate(-8)"><path class="h" d="M4.5,0,9,8H0Z"/><path class="j" d="M 4.5 2.039735317230225 L 1.709851264953613 7 L 7.290148735046387 7 L 4.5 2.039735317230225 M 4.5 0 L 9 8 L 0 8 L 4.5 0 Z"/></g><g class="a" transform="translate(743.975 396.302) rotate(-8)"><path class="h" d="M4.5,0,9,8H0Z"/><path class="j" d="M 4.5 2.039735317230225 L 1.709851264953613 7 L 7.290148735046387 7 L 4.5 2.039735317230225 M 4.5 0 L 9 8 L 0 8 L 4.5 0 Z"/></g><g class="a" transform="matrix(0.485, -0.875, 0.875, 0.485, 845.148, 397.046)"><path class="h" d="M4.5,0,9,8H0Z"/><path class="k" d="M 4.5 2.039735317230225 L 1.709851264953613 7 L 7.290148735046387 7 L 4.5 2.039735317230225 M 4.5 0 L 9 8 L 0 8 L 4.5 0 Z"/></g><g class="a" transform="matrix(0.485, -0.875, 0.875, 0.485, 1155.148, 408.796)"><path class="h" d="M4.5,0,9,8H0Z"/><path class="k" d="M 4.5 2.039735317230225 L 1.709851264953613 7 L 7.290148735046387 7 L 4.5 2.039735317230225 M 4.5 0 L 9 8 L 0 8 L 4.5 0 Z"/></g><path class="b" d="M4.5,0,9,8H0Z" transform="matrix(0.766, -0.643, 0.643, 0.766, 895.981, 352.785)"/><g class="c" transform="translate(1024 357)"><circle class="h" cx="5" cy="5" r="5"/><circle class="l" cx="5" cy="5" r="4.5"/></g><g class="d" transform="translate(1036 419)"><circle class="h" cx="5" cy="5" r="5"/><circle class="l" cx="5" cy="5" r="4.5"/></g><circle class="e" cx="3" cy="3" r="3" transform="translate(1128 451)"/><circle class="b" cx="3" cy="3" r="3" transform="translate(1104 356)"/><circle class="f" cx="3" cy="3" r="3" transform="translate(962 341)"/><circle class="f" cx="3" cy="3" r="3" transform="translate(777 436)"/><g class="g" transform="translate(797 353)"><circle class="h" cx="6" cy="6" r="6"/><circle class="l" cx="6" cy="6" r="5.5"/></g></g></svg>