<svg id="Layer_1" data-name="Layer 1" xmlns="http://www.w3.org/2000/svg" viewBox="0 0 40 40"><defs><style>.cls-1{fill:#ababab;}</style></defs><path id="dots" class="cls-1" d="M21.8,14.18a2.56,2.56,0,0,1-3.6,0,2.48,2.48,0,0,1-.74-1.8,2.45,2.45,0,0,1,.74-1.8,2.54,2.54,0,0,1,3.6,0,2.45,2.45,0,0,1,.74,1.8A2.48,2.48,0,0,1,21.8,14.18Zm0,7.62a2.56,2.56,0,1,1,.74-1.8A2.45,2.45,0,0,1,21.8,21.8Zm0,7.62a2.54,2.54,0,0,1-3.6,0,2.45,2.45,0,0,1-.74-1.8,2.48,2.48,0,0,1,.74-1.8,2.56,2.56,0,0,1,3.6,0,2.48,2.48,0,0,1,.74,1.8A2.45,2.45,0,0,1,21.8,29.42Z"/></svg>