<svg xmlns="http://www.w3.org/2000/svg" viewBox="0 0 300 300"><path d="M150 40a110 110 0 1 0 110 110A110.128 110.128 0 0 0 150 40Zm0 209.647A99.647 99.647 0 1 1 249.647 150 99.758 99.758 0 0 1 150 249.647Z"/><path d="M121.368 113.381c-6.936 0-14.4.2-18.328.3a.948.948 0 0 0-1.04.829v65.919c0 .506 1.048.568 1.563.568h10.454c.516 0 .983-.062.983-.568V158.8c2 0 2.865.1 5.767.1 15 0 27.153-7.239 27.153-23.274 0-11.589-7.626-22.245-26.552-22.245Zm-.6 34.86c-3 0-3.767 0-5.767-.1v-24c1-.1 3.694-.2 6.909-.2 9 0 14.175 4.337 14.175 11.89-.001 9.518-7.149 12.41-15.318 12.41Zm61.012-19.028a20.793 20.793 0 0 0-14.105 5.379 21.436 21.436 0 0 0-.683-3.8 1.1 1.1 0 0 0-1.209-.79h-8.9c-.627 0-1.014.274-1.014.79.212 2.174.129 7.725.129 11.142v38.389c0 .617.784.679 1.4.679h10.454c.516 0 .145-.164.145-.679v-36.63c3-2.487 5.8-4.034 9.627-4.034 5.48 0 8.373 3.832 8.373 10.242v30.422c0 .516.478.679 1.095.679h10.353c.516 0 .552-.062.552-.679v-31.455c.003-15.934-8.867-19.655-16.217-19.655Z"/></svg>