<svg xmlns="http://www.w3.org/2000/svg" viewBox="0 0 300 300"><path d="M150 40a110 110 0 1 0 110 110A110.128 110.128 0 0 0 150 40Zm0 209.647A99.647 99.647 0 1 1 249.647 150 99.755 99.755 0 0 1 150 249.647Z" style="stroke:#787878;stroke-miterlimit:10;stroke-width:.25px"/><path d="M152.5 86.5h-7v20h-53v75h35.03l-21.055 27.643a3.425 3.425 0 0 0 .748 4.947 3.57 3.57 0 0 0 2.218.617 3.353 3.353 0 0 0 2.973-1.06l24.38-32.147H163.2l24.381 32.086a3.484 3.484 0 0 0 2.973 1.243 3.844 3.844 0 0 0 2.218-.861 3.22 3.22 0 0 0 .748-4.764l-21.055-27.7H205.5v-75h-53Zm46 28v60h-99v-60Z" style="stroke:#000;stroke-miterlimit:10"/></svg>