<svg xmlns="http://www.w3.org/2000/svg" viewBox="0 0 300 300"><path d="M150 40a110 110 0 1 0 110 110A110.128 110.128 0 0 0 150 40Zm0 209.647A99.647 99.647 0 1 1 249.647 150 99.758 99.758 0 0 1 150 249.647Z"/><path d="m115.37 150.711 15.757 25.589c.313.39.078.7-.312.779h-9.594a1.089 1.089 0 0 1-1.17-.624c-3.744-6.4-7.566-12.87-11.389-19.578h-.078a785.564 785.564 0 0 1-10.842 19.578.909.909 0 0 1-.937.624H87.68c-.547 0-.547-.468-.312-.779l15.289-24.961-14.977-24.81a.43.43 0 0 1 .39-.7h9.517a.846.846 0 0 1 .936.547c3.433 6.474 7.332 12.87 10.843 19.345h.078c3.432-6.475 7.1-12.871 10.687-19.268a.878.878 0 0 1 .936-.624h8.733c.468 0 .546.313.313.78Zm23.71 26.364c-.623 0-.779-.233-.779-.779v-49.767c0-.39.156-.7.624-.7h8.346c.313 0 .469.234.469.547v42.2h22.933c.468 0 .624.234.546.546l-1.326 7.332c-.078.546-.312.624-.7.624Zm37.52-2.027a1.159 1.159 0 0 1-.546-1.171v-8.112c0-.312.312-.468.623-.312a26.248 26.248 0 0 0 13.885 4.056c6.4 0 9.127-2.5 9.127-5.85 0-2.887-1.872-5.07-7.8-7.566l-3.744-1.561c-9.594-4.056-12.09-8.892-12.09-14.742 0-8.347 6.317-14.742 18.1-14.742 4.915 0 9.361.7 11.935 2.027.391.234.469.469.469 1.015v7.566c0 .312-.234.624-.7.312-2.965-1.716-7.255-2.574-11.778-2.574-6.709 0-8.814 2.809-8.814 5.538 0 2.809 1.794 4.759 7.956 7.333l2.964 1.248c10.141 4.212 13.026 9.126 13.026 15.288 0 9.127-7.176 15.055-18.954 15.055-5.704-.001-10.459-1.092-13.659-2.808Z"/></svg>