<svg xmlns="http://www.w3.org/2000/svg" viewBox="0 0 300 300"><path d="M150 40a110 110 0 1 0 110 110A110.128 110.128 0 0 0 150 40Zm0 209.647A99.647 99.647 0 1 1 249.647 150 99.755 99.755 0 0 1 150 249.647Z"/><path d="M130.6 103.95a49.622 49.622 0 0 1 38.8 0 49.288 49.288 0 0 1 26.65 26.65 49.624 49.624 0 0 1 0 38.8 49.288 49.288 0 0 1-26.65 26.65 49.622 49.622 0 0 1-38.8 0 49.288 49.288 0 0 1-26.65-26.65 49.624 49.624 0 0 1 0-38.8 49.288 49.288 0 0 1 26.65-26.65Zm15.321 8.724a37.932 37.932 0 0 0-33.247 33.247 36.888 36.888 0 0 0 5.816 24.392 1.163 1.163 0 0 0 .781.434.937.937 0 0 0 .868-.261l50.347-50.347a1 1 0 0 0-.174-1.65 36.6 36.6 0 0 0-24.392-5.815Zm8.16 74.653a37.468 37.468 0 0 0 27.431-57.639 1.174 1.174 0 0 0-.781-.434.943.943 0 0 0-.868.261l-50.347 50.347a1 1 0 0 0 .174 1.65 36.89 36.89 0 0 0 24.39 5.814Z"/></svg>