<svg xmlns="http://www.w3.org/2000/svg" viewBox="0 0 300 300"><path d="M150 40a110 110 0 1 0 110 110A110.128 110.128 0 0 0 150 40Zm0 209.647A99.647 99.647 0 1 1 249.647 150 99.758 99.758 0 0 1 150 249.647Z"/><path d="M109.3 128.566c-5.3 0-10.858.152-13.608.222a.626.626 0 0 0-.687.586v46.477c0 .354.586.148.95.148h7.6c.445 0 .447.145.447-.219V161h4.71c10.939 0 19.857-5.055 19.857-16.581-.003-7.967-5.22-15.853-19.269-15.853Zm-.656 24.659c-2.386 0-3.64 0-4.64-.071v-16.823c1-.071 2.9-.142 5.428-.142 6.673 0 10.454 3.114 10.454 8.412-.004 6.592-5.16 8.624-11.246 8.624Zm41.093-24.659c-5.3 0-10.579.152-13.329.222-.364 0-.408.222-.408.586v46.477c0 .354.028.148.392.148h7.6c.445 0 1.006.145 1.006-.219V161h4.151c10.939 0 19.857-5.055 19.857-16.581.001-7.967-5.216-15.853-19.269-15.853Zm-.377 24.659c-2.386 0-3.36 0-4.36-.071v-16.823c1-.071 2.621-.142 5.149-.142 6.673 0 10.454 3.114 10.454 8.412-.003 6.592-5.156 8.624-11.243 8.624Zm59.947-23.709c-.081-.506-.3-.516-.728-.516h-36.033c-.445 0-.586.011-.667.435l-.93 6.871c-.081.364.061.694.425.694H186v38.7c0 .506.235.3.761.3h7.461c.364 0 .778.145.778-.3V137h14.449c.364 0 .586-.33.506-.775Z"/></svg>