<svg xmlns="http://www.w3.org/2000/svg" viewBox="0 0 300 300" style="enable-background:new 0 0 300 300" xml:space="preserve"><path d="M150 40C89.2 40 40 89.2 40 150s49.2 110 110 110 110-49.2 110-110c-.1-60.7-49.3-109.9-110-110zm0 209.6c-55 0-99.6-44.6-99.6-99.6S95 50.4 150 50.4 249.6 95 249.6 150c0 55-44.6 99.6-99.6 99.6z"/><path d="M88.7 145.8H71.9v-18.7h-11v48.7h11v-20.3h16.8v20.3h11.1v-48.7H88.7zm18.7-9.4h13.4v39.4h11v-39.4h13.4v-9.3h-37.8zm71.2 12.4c-.5 1.4-1 2.9-1.4 4.4-.4 1.5-.9 3-1.4 4.5h-.3c-.5-1.5-1-3-1.4-4.5-.4-1.5-.9-3-1.4-4.4l-7.8-21.7h-12v48.7h9.9V158c0-1.2 0-2.5-.1-4-.1-1.4-.2-2.9-.4-4.4-.1-1.5-.3-2.9-.4-4.3-.1-1.4-.3-2.7-.4-3.9h.3l3.9 11.6 6.9 18.6h6.1l7-18.6 4-11.6h.3c-.1 1.2-.3 2.5-.4 3.9-.1 1.4-.3 2.9-.4 4.3-.1 1.5-.3 2.9-.4 4.4-.1 1.4-.1 2.8-.1 4v17.9h10v-48.7h-12l-8.1 21.6zm42.2 17.7v-39.4h-11v48.7h30.3v-9.3z"/></svg>