<svg xmlns="http://www.w3.org/2000/svg" viewBox="0 0 300 300"><path d="M150 40a110 110 0 1 0 110 110A110.128 110.128 0 0 0 150 40Zm0 209.647A99.647 99.647 0 1 1 249.647 150 99.755 99.755 0 0 1 150 249.647Z"/><path d="m124.718 194.718 27.9-27.893a21.071 21.071 0 0 1 1.5 7.451q0 9.155-7.559 16.717l-12.782 12.776q-7.565 7.565-16.723 7.565a21.149 21.149 0 0 1-10-2.665 27.5 27.5 0 0 1-6.708-4.9l-5.115-5.109q-7.565-7.556-7.559-16.717t7.559-16.717l12.782-12.776q7.547-7.565 16.711-7.565a21.647 21.647 0 0 1 7.559 1.384l-28 28.007c-2.564 2.558-3.833 5.109-3.833 7.667s1.27 5.109 3.833 7.667l5.1 5.109q3.845 3.836 7.667 3.833 3.85 0 7.668-3.834Zm3.091-31.2 34.716-34.71a2.559 2.559 0 0 1 3.618 0l4.049 4.043a2.581 2.581 0 0 1 0 3.624l-34.716 34.71a2.559 2.559 0 0 1-3.618 0l-4.049-4.043a2.581 2.581 0 0 1 0-3.624Zm65.909-37.8c2.564-2.552 3.833-5.109 3.833-7.667s-1.27-5.109-3.833-7.667l-5.1-5.109q-3.845-3.836-7.667-3.833-3.845 0-7.667 3.833l-28.007 28.007a21.6 21.6 0 0 1-1.39-7.565q0-9.155 7.559-16.717l12.782-12.776q7.565-7.556 16.723-7.559t16.711 7.559l5.115 5.109a27.891 27.891 0 0 1 4.9 6.708 21.162 21.162 0 0 1 2.659 10.009q0 9.164-7.559 16.717l-12.784 12.783q-7.565 7.556-16.711 7.559a21.143 21.143 0 0 1-7.463-1.491Z"/></svg>