<svg xmlns="http://www.w3.org/2000/svg" viewBox="0 0 300 300"><path d="M150 40a110 110 0 1 0 110 110A110.128 110.128 0 0 0 150 40Zm0 209.647A99.647 99.647 0 1 1 249.647 150 99.755 99.755 0 0 1 150 249.647Z"/><path d="M200.723 131.286c-.131-.789-.394-1.274-.789-1.436a2.139 2.139 0 0 0-1.577.152L160.1 141.861l11.263-41.917c.263-.718.3-1.2.1-1.426a3.1 3.1 0 0 0-1.486-.647l-24.214-3.063a1.829 1.829 0 0 0-2.073 2.073l-2.083 42.312-33.107-21.546a2.2 2.2 0 0 0-1.587-.445c-.394.091-.758.475-1.082 1.132L95.546 138.5a2.219 2.219 0 0 0 .991 2.669l37.954 13.639-33.506 28.369c-.93.657-.93 1.456 0 2.376l14.326 15.024a1.489 1.489 0 0 0 2.376 0l29.067-32.818 22.536 39.642c.789 1.183 1.709 1.517 2.77.991l18.381-12.264a1.737 1.737 0 0 0 .4-2.77l-27.677-35.088 40.229-2.77q1.683 0 1.092-2.366Z"/></svg>