<svg xmlns="http://www.w3.org/2000/svg" viewBox="0 0 300 300"><path d="M150 40a110 110 0 1 0 110 110A110.128 110.128 0 0 0 150 40Zm0 209.647A99.647 99.647 0 1 1 249.647 150 99.758 99.758 0 0 1 150 249.647Z"/><path d="M99.757 128.566c-6.663 0-11.372.152-13.475.222-.435.071-.281.222-.281.576V175.7c0 .435-.012.657.281.657 2.315.142 8.876.142 13.446.142 12.254 0 25.685-7.108 25.685-24.8-.001-13.488-8.613-23.133-25.656-23.133Zm-.169 40.32c-1.881 0-4.588 0-4.588-.071v-32.484c1-.071 2.99-.142 5.022-.142 9.787 0 16.682 5.217 16.682 15.732-.004 11.02-6.895 16.965-17.116 16.965Zm54.158-40.896c-13.335 0-22.475 10.585-22.475 24.507 0 14.144 8.412 24.578 22.475 24.578 13.2 0 22.48-9.787 22.42-24.79-.081-13.416-8.21-24.295-22.42-24.295Zm.293 41.331c-8.917 0-13.7-7.472-13.7-16.824 0-10.727 5.581-16.753 13.265-16.753 8.488 0 13.482 6.6 13.482 16.753.081 10.08-4.853 16.824-13.047 16.824Zm63.467-40.098c-1.8-.8-4.736-1.233-9.448-1.233-15.812 0-25.976 10.08-25.976 24.659 0 16.53 11.459 24.426 24.865 24.426a33.1 33.1 0 0 0 10.278-1.3 1.146 1.146 0 0 0 .774-.94v-6.45c0-.435-.474-.506-.778-.364a26.556 26.556 0 0 1-9.053 1.233c-7.6 0-16.952-4.277-16.952-16.824 0-10.151 6.477-16.682 16.709-16.682a23.5 23.5 0 0 1 9.455 1.6c.283.152.619.152.619-.435v-6.885a.788.788 0 0 0-.493-.805Z"/></svg>