<svg xmlns="http://www.w3.org/2000/svg" viewBox="0 0 300 300"><path d="M150 40a110 110 0 1 0 110 110A110.128 110.128 0 0 0 150 40Zm0 209.647A99.647 99.647 0 1 1 249.647 150 99.758 99.758 0 0 1 150 249.647Z"/><path d="M146.726 114.21c-2.376-1.041-6.138-1.658-12.143-1.658-21.211 0-34.785 14.276-34.785 34.972 0 23.8 15.461 34.557 33.366 34.557 5.278 0 10.017-.415 13.121-1.648a1.165 1.165 0 0 0 .715-1.244v-9.009c0-.617-.279-.617-.694-.415a35.07 35.07 0 0 1-11.569 1.557c-10.141 0-22.446-5.894-22.446-24.214 0-14.69 8.8-23.8 22.358-23.8 4.964 0 8.971.728 11.873 2.174.415.1.479.1.479-.718v-9.423c-.001-.616.139-.929-.275-1.131Zm29.45 15.003c-8.381 0-15.216 2.376-19.664 3.923-.3.111-.619.313-.619.526a53.221 53.221 0 0 1 .108 5.793v61.562c0 .516.306.728.933.728.93-.1 7.035-.627 10.452-1.031.617-.111.615-.313.615-.829v-17.906c1 .1 2.066.1 3.107.1 14.69 0 29.281-9.211 29.281-28.036-.001-13.658-8.178-24.83-24.213-24.83Zm-4.138 42.726a24.85 24.85 0 0 1-4.037-.3v-31.15a22.673 22.673 0 0 1 6.727-1.031c8.381 0 13.244 5.581 13.244 15.307-.001 12.311-8.281 17.174-15.935 17.174Z"/></svg>