<svg xmlns="http://www.w3.org/2000/svg" viewBox="0 0 300 300"><path d="M150 40a110 110 0 1 0 110 110A110.128 110.128 0 0 0 150 40Zm0 209.647A99.647 99.647 0 1 1 249.647 150 99.758 99.758 0 0 1 150 249.647Z"/><path d="m204.264 116.36-13.107 12.677-30.272-29.883a7.173 7.173 0 0 0-9.559-.049l-17.838 17.253a6.65 6.65 0 0 0-.055 9.542 7.023 7.023 0 0 0 9.559.05l13.04-12.613 6.923 6.834-74.533 72.621a6.621 6.621 0 0 0-2.021 4.767 7.467 7.467 0 0 0 2.012 5.137 7.154 7.154 0 0 0 4.752 2.3h.035a7.191 7.191 0 0 0 4.773-2.294l48.25-47.2 4.9 4.748-28.283 27.321a6.613 6.613 0 0 0-.046 9.508 6.86 6.86 0 0 0 9.556.039l33.2-32.106a6.656 6.656 0 0 0 .043-9.542l-9.694-9.568 16.671-16.244 13.744 13.565a6.853 6.853 0 0 0 9.556.047l17.908-17.324a6.653 6.653 0 0 0 .049-9.539 7.026 7.026 0 0 0-9.563-.047ZM93.2 201.142Z"/><ellipse cx="184.681" cy="98.796" rx="14.229" ry="14.563" transform="rotate(-89.709 184.682 98.796)"/></svg>