<svg xmlns="http://www.w3.org/2000/svg" viewBox="0 0 300 300"><path d="M150 40a110 110 0 1 0 110 110A110.128 110.128 0 0 0 150 40Zm0 209.647A99.647 99.647 0 1 1 249.647 150 99.755 99.755 0 0 1 150 249.647Z"/><path d="M108.932 118.3v69.168H178.1v8.722h-69.168a9.018 9.018 0 0 1-8.722-8.722V118.3Zm77.89-17.444a9.018 9.018 0 0 1 8.722 8.722v60.649a8.036 8.036 0 0 1-2.637 5.984 8.517 8.517 0 0 1-6.085 2.536h-60.649a8.661 8.661 0 0 1-8.52-8.52v-60.652a8.517 8.517 0 0 1 2.536-6.085 8.036 8.036 0 0 1 5.984-2.637Zm0 69.371v-60.652h-60.649v60.649Z"/><path d="M145.355 154.241c-.259 0-.345-.086-.345-.3v-21.7a17.65 17.65 0 0 1-4.529 1.553c-.259.043-.345 0-.345-.259v-3.667c0-.216.043-.3.259-.345a21.374 21.374 0 0 0 6-2.588 1.122 1.122 0 0 1 .647-.172h2.977c.172 0 .216.086.216.3v26.875c0 .215-.086.3-.259.3Zm22.517-22.129c.172 0 .259.086.259.345v8.67h8.369c.216 0 .259.086.259.345v3.063c0 .259-.086.345-.3.345h-8.325v8.8c0 .215-.086.259-.3.259h-3.321c-.216 0-.259-.086-.259-.259v-8.8h-8.326c-.215 0-.345-.086-.345-.345v-3.149c0-.173.129-.259.3-.259h8.369v-8.756a.228.228 0 0 1 .259-.259Z"/></svg>