<svg xmlns="http://www.w3.org/2000/svg" viewBox="0 0 300 300"><path d="M150 40a110 110 0 1 0 110 110A110.128 110.128 0 0 0 150 40Zm0 209.647A99.647 99.647 0 1 1 249.647 150 99.755 99.755 0 0 1 150 249.647Z"/><path d="M215.788 162.506c-3.963-4.186-11.359-6.228-22.617-6.228a118.992 118.992 0 0 0-19.649 1.739 90.523 90.523 0 0 1-11.652-13.5 114.654 114.654 0 0 1-7.3-11.455c4.074-12.547 6.137-22.95 6.137-30.927a33.493 33.493 0 0 0-.839-7.573 15.706 15.706 0 0 0-3.867-7.1 10.391 10.391 0 0 0-8.012-3.448 8.241 8.241 0 0 0-7.578 4.4c-2.194 3.609-2.78 9-1.795 16.48a79.458 79.458 0 0 0 6.688 22.334c-2.28 6.865-5.227 14.69-8.766 23.274a178.328 178.328 0 0 1-9.944 20.595c-10.055 3.983-18.274 8.22-24.437 12.6-6.531 4.631-10.055 8.847-10.767 12.911a8.552 8.552 0 0 0 2.659 7.856 11.848 11.848 0 0 0 8.321 2.932c5.743 0 11.829-3.458 18.1-10.282a133.591 133.591 0 0 0 17.4-24.78c5.085-1.779 10.631-3.488 16.48-5.1 4.383-1.173 10.151-2.426 17.612-3.852 10.965 9.736 22.233 14.68 33.5 14.68 6.213 0 10.242-2.042 12.021-6.2a10.425 10.425 0 0 0 .359-5.176 8.606 8.606 0 0 0-2.054-4.18Zm-105.521 32.141c-4.327 4.6-7.891 6.926-10.6 6.926a3.1 3.1 0 0 1-2.32-.809A3.489 3.489 0 0 1 96.2 197.5c.506-2.71 3.453-6.026 8.528-9.585a105.617 105.617 0 0 1 17.642-9.655 103.087 103.087 0 0 1-12.103 16.387Zm34.077-85.594a45.534 45.534 0 0 1-1.158-11.425 15.269 15.269 0 0 1 1.6-6.693 3.466 3.466 0 0 1 3.2-1.951c1.122 0 4.095 0 4.095 7.441 0 5.854-1.506 13.8-4.474 23.658a72.069 72.069 0 0 1-3.264-11.03Zm8.922 53.413c-2.755.718-6.673 1.86-11.925 3.488a122.846 122.846 0 0 0 5.682-12.314 351.261 351.261 0 0 0 5.475-14.377c1.7 2.77 3.523 5.47 5.429 8.048a91.072 91.072 0 0 0 9.736 11.829 264.54 264.54 0 0 0-14.397 3.326Zm54.166 5.733a4.711 4.711 0 0 1-3.114 3.549 10.933 10.933 0 0 1-6.627.313 51.724 51.724 0 0 1-19.28-9.807c9.807-1.537 17.779-1.658 23.764-.394 5.575 1.192 5.737 4.013 5.257 6.34Z"/></svg>