<svg data-name="Layer 1" xmlns="http://www.w3.org/2000/svg" viewBox="0 0 300 300"><path d="M202.22 146.45a13.3 13.3 0 0 0-6.72-4.92A45.77 45.77 0 0 0 150 99.58a45.77 45.77 0 0 0-45.5 42 13.67 13.67 0 0 0-9.34 13v13.73A13.83 13.83 0 0 0 108.89 182h2.29a2.18 2.18 0 0 0 1.62-.68 2.15 2.15 0 0 0 .67-1.61V142q0-13.35 10.59-23.31t25.94-10q15.39 0 25.94 10T186.53 142v37.67a2.15 2.15 0 0 0 .67 1.61 2.18 2.18 0 0 0 1.62.68h2.29a13.83 13.83 0 0 0 13.73-13.74V154.5a13.28 13.28 0 0 0-2.62-8.05Z"/><path d="M150 39.77a110 110 0 1 0 110 110 110.13 110.13 0 0 0-110-110Zm0 209.65a99.65 99.65 0 1 1 99.65-99.65A99.76 99.76 0 0 1 150 249.42Z"/></svg>