<svg xmlns="http://www.w3.org/2000/svg" viewBox="0 0 300 300"><path d="M60.99 174.831a83.421 83.421 0 0 1 0-83.5 83.2 83.2 0 0 1 30.387-30.383 83.421 83.421 0 0 1 83.5 0 83.2 83.2 0 0 1 30.383 30.387 81.285 81.285 0 0 1 11.2 41.748 82.112 82.112 0 0 1-13.2 45.133l40.282 40.284q6.25 6.25 6.25 12.5t-6.25 12.5q-6.25 6.25-12.5 6.25t-12.5-6.25l-40.283-40.283a82.112 82.112 0 0 1-45.133 13.2 81.285 81.285 0 0 1-41.748-11.2 83.2 83.2 0 0 1-30.388-30.386ZM91.8 91.758q-17.017 17.017-17.008 41.325T91.8 174.408q17.017 17.017 41.325 17.008t41.325-17.008q17.017-17.017 17.008-41.325T174.45 91.758q-17.017-17.016-41.325-17.008T91.8 91.758Z"/></svg>