<svg xmlns="http://www.w3.org/2000/svg" viewBox="0 0 300 300"><path d="M107.318 46.4a109.177 109.177 0 0 1 85.364 0 108.437 108.437 0 0 1 58.629 58.628 109.172 109.172 0 0 1 0 85.365 108.44 108.44 0 0 1-58.629 58.629 109.182 109.182 0 0 1-85.364 0 108.443 108.443 0 0 1-58.628-58.631 109.172 109.172 0 0 1 0-85.365A108.44 108.44 0 0 1 107.318 46.4Zm33.707 19.19q-28.459 3.057-49.271 23.872t-23.872 49.271A81.151 81.151 0 0 0 80.677 192.4a2.557 2.557 0 0 0 1.719.955 2.065 2.065 0 0 0 1.91-.573L195.07 82.014q1.718-2.1-.382-3.628a80.5 80.5 0 0 0-53.663-12.796Zm17.951 164.236q28.453-3.053 49.271-23.775t23.872-49.367a80.5 80.5 0 0 0-12.8-53.663 2.581 2.581 0 0 0-1.719-.955 2.076 2.076 0 0 0-1.909.573L104.931 213.4q-1.72 2.1.382 3.629a81.151 81.151 0 0 0 53.663 12.797Z"/></svg>