<svg xmlns="http://www.w3.org/2000/svg" viewBox="0 0 300 300" xml:space="preserve"><path d="M251.757 234.646c.594 1.188.92 2.703.979 4.552.059 1.841-.176 3.715-.711 5.623-.536 1.899-1.757 3.539-3.657 4.912-1.908 1.364-4.351 2.05-7.322 2.05H58.968c-3.924 0-6.903-.979-8.928-2.945-2.025-1.966-2.945-4.05-2.761-6.251.176-2.201.502-4.134.979-5.799l88.897-177.794c.477-.954 1.13-2.142 1.966-3.573.828-1.422 2.376-3.33 4.636-5.707 2.259-2.385 4.343-3.573 6.251-3.573 1.899 0 3.924 1.071 6.066 3.213 2.142 2.142 3.807 4.284 5.004 6.426l1.782 3.213c57.836 114.243 87.466 172.799 88.897 175.653zm-112.728-10.443c3.037 3.037 6.694 4.552 10.978 4.552s7.941-1.515 10.978-4.552 4.552-6.694 4.552-10.978-1.515-7.941-4.552-10.978-6.694-4.552-10.978-4.552-7.941 1.515-10.978 4.552-4.552 6.694-4.552 10.978 1.514 7.94 4.552 10.978zm-4.017-113.799v12.853c0 4.401.326 9.966.979 16.693.653 6.719 1.339 12.761 2.058 18.116a1700.85 1700.85 0 0 0 2.142 15.622c.711 5.054 1.13 7.882 1.247 8.476.234.711.828 1.071 1.782 1.071h13.572c1.188 0 1.782-.36 1.782-1.071.954-4.644 2.259-13.539 3.924-26.684 1.665-13.154 2.502-23.889 2.502-32.223v-13.564c0-.837-.594-1.489-1.782-1.966-3.456-1.071-7.916-1.607-13.388-1.607-5.481 0-9.941.711-13.388 2.142-.953.36-1.43 1.071-1.43 2.142z"/></svg>