<svg xmlns="http://www.w3.org/2000/svg" viewBox="0 0 300 300"><path d="M243.96 95.751H56.043a6.845 6.845 0 0 1-6.875-6.875V65.959a6.847 6.847 0 0 1 6.875-6.875H243.96a6.849 6.849 0 0 1 6.875 6.875v22.917a6.847 6.847 0 0 1-6.875 6.875Zm0 73.333H56.043a6.845 6.845 0 0 1-6.875-6.875v-22.916a6.845 6.845 0 0 1 6.875-6.875H243.96a6.847 6.847 0 0 1 6.875 6.875v22.916a6.847 6.847 0 0 1-6.875 6.875Zm0 73.334H56.043a6.847 6.847 0 0 1-6.875-6.875v-22.917a6.845 6.845 0 0 1 6.875-6.875H243.96a6.847 6.847 0 0 1 6.875 6.875v22.917a6.849 6.849 0 0 1-6.875 6.875Z"/></svg>