<svg xmlns="http://www.w3.org/2000/svg" viewBox="0 0 300 300"><path d="M109.258 53.294a104.216 104.216 0 0 1 81.484 0 103.509 103.509 0 0 1 55.964 55.964 104.216 104.216 0 0 1 0 81.484 103.511 103.511 0 0 1-55.964 55.958 104.2 104.2 0 0 1-81.484 0 103.511 103.511 0 0 1-55.964-55.963 104.216 104.216 0 0 1 0-81.484 103.509 103.509 0 0 1 55.964-55.964ZM215.625 167.5a4.358 4.358 0 0 0 4.375-4.375v-26.25a4.356 4.356 0 0 0-4.375-4.375H167.5V84.375A4.356 4.356 0 0 0 163.125 80h-26.25a4.356 4.356 0 0 0-4.375 4.375V132.5H84.375A4.356 4.356 0 0 0 80 136.875v26.25a4.358 4.358 0 0 0 4.375 4.375H132.5v48.125a4.358 4.358 0 0 0 4.375 4.375h26.25a4.358 4.358 0 0 0 4.375-4.375V167.5Z"/></svg>