<svg xmlns="http://www.w3.org/2000/svg" viewBox="0 0 300 300"><path d="M109.258 53.294a104.216 104.216 0 0 1 81.484 0 103.511 103.511 0 0 1 55.963 55.964 104.2 104.2 0 0 1 0 81.484 103.514 103.514 0 0 1-55.962 55.958 104.2 104.2 0 0 1-81.484 0 103.509 103.509 0 0 1-55.965-55.963 104.227 104.227 0 0 1 0-81.484 103.507 103.507 0 0 1 55.965-55.964ZM80 163.125a4.356 4.356 0 0 0 4.375 4.375h131.25a4.36 4.36 0 0 0 4.375-4.375v-26.25a4.358 4.358 0 0 0-4.375-4.375H84.376A4.355 4.355 0 0 0 80 136.875Z"/></svg>