<svg xmlns="http://www.w3.org/2000/svg" viewBox="0 0 300 300" xml:space="preserve"><circle fill="#CCC" cx="150" cy="150" r="125"/><path fill="#787878" d="M120.415 207.773c-1.29 3.354-2.644 5.738-4.061 7.155-3.094 3.094-7.994 6.091-14.695 8.991a326.509 326.509 0 0 1-20.4 8.025 330.757 330.757 0 0 0-18.754 7.315C85.052 261.364 115.931 275 150 275c34.108 0 65.019-13.667 87.573-35.815a293.405 293.405 0 0 0-18.831-7.433 307.692 307.692 0 0 1-20.303-8.025c-6.642-2.9-11.506-5.897-14.6-8.991-1.42-1.417-2.773-3.802-4.061-7.155-1.29-3.35-2.097-7.058-2.417-11.118-.323-4.061.61-7.702 2.804-10.925l2.9-6.188c1.934-3.995 3.867-8.728 5.801-14.143 1.934-5.414 2.9-9.207 2.9-12.207h2.32c2.061 0 3.737-2.938 5.028-8.869 1.287-5.928 1.934-11.46 1.934-16.617 0-3.994-1.431-6.888-3.879-8.695-.646-.387-1.171-1.024-1.171-1.928v-12.955c0-12.889-.699-22.141-2.503-27.748-1.807-5.607-5.699-8.605-11.886-8.992-.773 0-1.369-.449-1.883-1.354-1.42-3.736-5.068-6.768-10.997-9.088-5.931-2.32-12.169-3.48-18.743-3.48-15.083 0-26.379 4.191-34.307 12.568C107.754 74.224 104 84.729 104 97.361v19.529c0 .647-.59 1.228-1.364 1.741-2.32 1.29-3.583 4.254-3.583 8.895 0 5.415.559 10.997 1.787 16.798 1.224 5.801 2.88 8.676 5.073 8.676h2.32c0 6 3.867 17.042 11.602 32.512 2.19 3.223 3.157 6.91 2.9 11.034-.259 4.127-1.033 7.878-2.32 11.227z"/></svg>