<svg xmlns="http://www.w3.org/2000/svg" viewBox="0 0 300 300"><path d="M150 30a120 120 0 1 0 120 120A120 120 0 0 0 150 30Zm-16.637 39.372a2.737 2.737 0 0 1 1.279-2.815c3.328-1.792 11.519-3.071 15.358-3.071 5.119 0 13.054 1.024 15.614 2.3a3.209 3.209 0 0 1 1.535 2.815v18.433c0 21.5-4.351 81.907-5.119 89.586 0 .768-.256 1.536-1.792 1.536h-20.476a1.692 1.692 0 0 1-1.792-1.536c-.512-7.167-4.607-67.317-4.607-88.818ZM150 236.515c-11.007 0-18.429-6.655-18.429-17.149 0-10.239 7.679-17.661 18.429-17.661 11.006 0 18.429 7.167 18.429 17.661 0 10.749-7.679 17.149-18.429 17.149Z"/></svg>