<svg xmlns="http://www.w3.org/2000/svg" viewBox="0 0 300 300"><path d="M117.082 232.9a10.417 10.417 0 0 1-3.659-.687 9.4 9.4 0 0 1-6.287-9.109V187.99a12.934 12.934 0 0 1 5.083-10.5l47.7-37.118-69.504 28.973a12.322 12.322 0 0 1-12.607-1.354l-43.625-29.575a9.806 9.806 0 0 1 4.183-17.359l222.093-47.849a9.337 9.337 0 0 1 10.409 4.426 9.791 9.791 0 0 1-.47 11.146l-96.319 135.209a11.152 11.152 0 0 1-7.932 4.766 11.608 11.608 0 0 1-8.781-2.485l-17.107-12.63-16.3 16.3a9.621 9.621 0 0 1-6.877 2.96Zm71.718-99.8-69.188 53.84a1.054 1.054 0 0 0-.477 1.05v29.8l19.941-19.941 25.484 18.816 93.01-130.559L45.706 131.75l38.973 26.4a2.245 2.245 0 0 0 .615.336c.008-.007.062-.024.147-.064l.249-.111 94.759-39.5A8.345 8.345 0 0 1 188.8 133.1Z"/></svg>