<svg xmlns="http://www.w3.org/2000/svg" viewBox="0 0 300 300"><path d="M150 251.625a11.965 11.965 0 0 1-10.5-6l-.114-.195-49.57-88.314c-.9-1.543-1.919-3.552-3.119-6.137a106.708 106.708 0 0 1-4.837-14.755 78.746 78.746 0 0 1-3.014-20.76 68.854 68.854 0 0 1 20.842-50.306A68.855 68.855 0 0 1 150 44.312a68.857 68.857 0 0 1 50.312 20.846 68.852 68.852 0 0 1 20.847 50.311 79.585 79.585 0 0 1-2.742 20.187 90.751 90.751 0 0 1-5.49 16.012l-2.712 5.41-49.6 88.358A11.688 11.688 0 0 1 150 251.625ZM108.4 73.866c-11.6 11.6-17.239 25.209-17.239 41.6a66.46 66.46 0 0 0 2.572 17.494c2.2 7.992 3.459 11.388 4.131 12.83 1.036 2.233 1.914 3.968 2.612 5.164l.053.091L150 239.189l49.4-88.012 2.473-4.946a80.725 80.725 0 0 0 4.631-13.71 67.3 67.3 0 0 0 2.336-17.052c0-16.394-5.639-30-17.239-41.6S166.393 56.627 150 56.627s-30 5.639-41.6 17.239ZM150 146a29.57 29.57 0 0 1-21.62-8.913 30.679 30.679 0 0 1 0-43.239 30.533 30.533 0 0 1 52.153 21.619A30.432 30.432 0 0 1 150 146Zm-12.912-17.62a18.217 18.217 0 0 0 31.128-12.911 18.259 18.259 0 0 0-31.128-12.911 18.365 18.365 0 0 0 0 25.822Z"/></svg>