<svg xmlns="http://www.w3.org/2000/svg" viewBox="0 0 300 300"><path d="M220.578 250H79.422a12.648 12.648 0 0 1-12.441-12.441v-3.892a27.2 27.2 0 0 1 7.359-18.662 48.117 48.117 0 0 1 14.86-11.256c4.678-2.253 10.048-4.981 15.96-8.111 5.4-2.861 9.4-5.563 11.863-8.031.549-.549 1.949-2.376 3.09-7.474a13.132 13.132 0 0 0-1.223-9.481l-.1-.185c-5.256-10.51-8.438-18.493-9.741-24.518-4.733-2.441-6.177-9.028-6.723-11.513a72.759 72.759 0 0 1-1.746-15.566c0-5.6 1.824-9.075 3.892-11.218V93.573c0-12.313 3.974-22.74 11.809-30.992C124.218 54.233 135.559 50 150 50a49.434 49.434 0 0 1 18.158 3.376c5.472 2.149 9.375 5.066 11.645 8.692a16.785 16.785 0 0 1 12.973 11.592c1.845 5.4 2.743 13.71 2.743 25.4v8.594c2.067 2.144 3.892 5.622 3.892 11.218a70.44 70.44 0 0 1-1.843 15.43c-.628 2.773-2.092 9.237-6.687 11.648a61.482 61.482 0 0 1-2.127 6.93 120.644 120.644 0 0 1-5.19 12.332l-2.461 5.446a12.917 12.917 0 0 0-1.225 9.373c1.136 5.026 2.542 6.851 3.094 7.4 2.477 2.48 6.483 5.219 11.907 8.143 5.88 3.172 11.213 5.883 15.854 8.058a46.394 46.394 0 0 1 14.956 11.32 27.525 27.525 0 0 1 7.33 18.716v3.892A12.65 12.65 0 0 1 220.578 250ZM80.189 236.792h139.622v-3.125a14.5 14.5 0 0 0-3.993-9.941 33.268 33.268 0 0 0-10.693-8.137c-4.863-2.28-10.421-5.1-16.516-8.392-6.646-3.583-11.546-7-14.979-10.431-3.05-3.05-5.221-7.573-6.634-13.825a25.935 25.935 0 0 1 2.367-18.34l2.325-5.172a107.059 107.059 0 0 0 4.653-11.068c1.876-5.159 2.078-7.376 2.078-8.089v-6.6h5.661c.178-.564.384-1.311.6-2.285a57.214 57.214 0 0 0 1.517-12.515 6.453 6.453 0 0 0-.243-2.05 8.193 8.193 0 0 1-3.648-6.794V99.057c0-12.541-1.106-18.411-2.033-21.126-.619-1.81-1.457-2.841-4.071-3.055a8.075 8.075 0 0 1-7.472-5.564c-.259-.548-1.309-2.034-5.407-3.644A36.29 36.29 0 0 0 150 63.208c-10.828 0-18.721 2.77-24.132 8.468-5.5 5.8-8.179 12.958-8.179 21.9v16.45a8.2 8.2 0 0 1-3.649 6.795 6.469 6.469 0 0 0-.242 2.049 59.591 59.591 0 0 0 1.438 12.735c.193.874.375 1.55.534 2.065h5.811v6.6c0 2.322 1.168 8.55 8.988 24.2a26.171 26.171 0 0 1 2.44 18.543c-1.415 6.322-3.587 10.879-6.64 13.932-3.448 3.448-8.363 6.839-15.023 10.365-6.06 3.208-11.581 6.014-16.41 8.339a34.961 34.961 0 0 0-10.785 8.2 14.178 14.178 0 0 0-3.962 9.817Z"/></svg>