<svg xmlns="http://www.w3.org/2000/svg" viewBox="0 0 300 300"><path d="M241.667 73.335h-11.178A5.489 5.489 0 0 0 225 78.824v12.022a5.489 5.489 0 0 1-5.489 5.489h-30.689a5.489 5.489 0 0 1-5.489-5.489V78.824a5.489 5.489 0 0 0-5.489-5.489h-55.688a5.489 5.489 0 0 0-5.489 5.489v12.022a5.489 5.489 0 0 1-5.489 5.489H80.489A5.489 5.489 0 0 1 75 90.846V78.824a5.489 5.489 0 0 0-5.489-5.489H58.333C50 73.335 50 81 50 81v153.331S50 242 58.333 242h183.334c8.333 0 8.333-7.669 8.333-7.669V81s0-7.665-8.333-7.665Zm-12.353 153.939H71.064a5.489 5.489 0 0 1-5.489-5.489V111.277a5.489 5.489 0 0 1 5.489-5.489h158.25a5.489 5.489 0 0 1 5.489 5.489v110.508a5.489 5.489 0 0 1-5.489 5.489Z"/><rect x="83.333" y="58.002" width="25" height="30.666" rx="5.489" ry="5.489"/><rect x="191.667" y="58.002" width="25" height="30.666" rx="5.489" ry="5.489"/><path d="M187.156 141.167h14.022c3.032 0 5.489 2 5.489 4.475v16.05c0 2.471-2.458 4.475-5.489 4.475h-14.022c-3.032 0-5.489-2-5.489-4.475v-16.05c0-2.472 2.457-4.475 5.489-4.475Z"/></svg>