<svg xmlns="http://www.w3.org/2000/svg" viewBox="0 0 28 28" xml:space="preserve"><path fill="#787878" d="m10 21.3 4.5-4.5c.2.4.2.8.2 1.2 0 1-.4 1.9-1.2 2.7l-2.1 2.1c-.7.8-1.6 1.2-2.6 1.2-.5 0-1.1-.1-1.6-.4-.4-.2-.8-.5-1.1-.8l-.8-.8c-.9-.9-1.3-1.8-1.3-2.8s.4-1.9 1.2-2.7l2.1-2.1c.8-.8 1.7-1.2 2.7-1.2.4 0 .8.1 1.2.2L6.7 18c-.4.4-.6.8-.6 1.2s.2.8.6 1.2l.8.8c.4.4.8.6 1.2.6.5.1.9-.1 1.3-.5zm.5-5.1 5.7-5.7c.1-.1.2-.1.3-.1s.2 0 .3.1l.7.7c.1.1.1.2.1.3 0 .1 0 .2-.1.3l-5.7 5.7c-.1.1-.2.1-.3.1s-.2 0-.3-.1l-.7-.7c-.1-.1-.1-.2-.1-.3 0-.1.1-.2.1-.3zM21.3 10c.4-.4.6-.8.6-1.2 0-.4-.2-.8-.6-1.2l-.8-.8c-.4-.4-.8-.6-1.2-.6-.4 0-.8.2-1.2.6l-4.6 4.6c-.2-.4-.2-.8-.2-1.2 0-1 .4-1.9 1.2-2.7l2.1-2.1c.7-1 1.6-1.4 2.6-1.4s1.9.4 2.7 1.2l.8.8c.3.3.6.7.8 1.1.4.6.5 1.1.5 1.7 0 1-.4 1.9-1.2 2.7l-2.1 2.1c-.8.8-1.7 1.2-2.7 1.2-.4 0-.8-.1-1.2-.2l4.5-4.6z"/></svg>