<svg xmlns="http://www.w3.org/2000/svg" viewBox="0 0 300 300"><path d="M260 150A110 110 0 1 1 150 40a110 110 0 0 1 110 110Zm-167.147-5.4a156.882 156.882 0 0 1 7.652-43.765l-36.747-.042A98.753 98.753 0 0 0 50.87 144.6Zm51.777-43.8h-32.749a145.232 145.232 0 0 0-8.294 43.8h41.041v-43.8Zm0-49.936a118.553 118.553 0 0 0-28.378 39.1h28.378ZM70.87 89.958h33.7a137.81 137.81 0 0 1 22.442-36.511C103.833 58.674 84 72.652 70.87 89.958ZM249.13 144.6a98.773 98.773 0 0 0-12.888-43.806l-36.751.042a156.8 156.8 0 0 1 7.654 43.765Zm-93.76 0h41.043a145.234 145.234 0 0 0-8.3-43.8H155.37Zm0-54.641h28.38a118.59 118.59 0 0 0-28.38-39.1Zm17.615-36.509a137.725 137.725 0 0 1 22.445 36.508h33.7C216 72.652 196.171 58.674 172.986 53.449ZM50.87 155.4a98.727 98.727 0 0 0 12.888 43.8l36.747-.04a156.868 156.868 0 0 1-7.652-43.76H50.87Zm93.76 0h-41.043a145.22 145.22 0 0 0 8.294 43.8h32.749Zm0 54.641h-28.38a118.53 118.53 0 0 0 28.378 39.1v-39.1Zm-17.618 36.509a137.823 137.823 0 0 1-22.442-36.51h-33.7c13.13 17.305 32.963 31.284 56.142 36.511Zm80.131-91.15a156.644 156.644 0 0 1-7.654 43.765l36.751.04a98.7 98.7 0 0 0 12.888-43.8h-41.985Zm-51.773 43.8h32.749a145.288 145.288 0 0 0 8.3-43.8H155.37Zm0 49.936a118.527 118.527 0 0 0 28.38-39.1h-28.38Zm73.759-39.1h-33.7a137.773 137.773 0 0 1-22.444 36.511c23.186-5.223 43.015-19.202 56.145-36.505Z"/></svg>