<svg xmlns="http://www.w3.org/2000/svg" viewBox="0 0 300 300"><path d="M111.991 82.682a123.088 123.088 0 0 1 76.019 0q17.939 6.016 29.308 14.036a124.139 124.139 0 0 1 20.911 18.709c6.374 7.144 10.975 13.016 13.839 17.671a129.254 129.254 0 0 1 7.161 13.088 9.83 9.83 0 0 1 0 7.627 129.254 129.254 0 0 1-7.161 13.088c-2.865 4.655-7.466 10.527-13.839 17.671a124.139 124.139 0 0 1-20.911 18.709q-11.36 8.03-29.308 14.036a123.088 123.088 0 0 1-76.019 0q-17.94-6.017-29.309-14.036a124.139 124.139 0 0 1-20.911-18.709C55.4 177.428 50.8 171.556 47.932 166.9a129.254 129.254 0 0 1-7.161-13.088 9.83 9.83 0 0 1 0-7.627 129.254 129.254 0 0 1 7.161-13.085c2.865-4.655 7.466-10.527 13.839-17.671a124.139 124.139 0 0 1 20.911-18.71q11.36-8.03 29.309-14.037Zm-.859 106.186A52.983 52.983 0 0 0 150 205a55.075 55.075 0 0 0 55-55 55.075 55.075 0 0 0-55-55 55.075 55.075 0 0 0-55 55 52.984 52.984 0 0 0 16.131 38.869Zm19.39-19.39a27.548 27.548 0 0 1 38.958-38.958 27.548 27.548 0 0 1-38.958 38.958Z"/></svg>