<svg version="1.1" id="Layer_1" xmlns="http://www.w3.org/2000/svg" x="0" y="0" viewBox="0 0 300 300" style="enable-background:new 0 0 300 300" xml:space="preserve"><style>.st1{fill:#8e8e8e}.st2{fill:#4484cf}</style><circle cx="150.5" cy="150" r="124" style="fill:#efefef"/><path class="st1" d="M150.5 274.5C81.9 274.5 26 218.6 26 150S81.9 25.5 150.5 25.5 275 81.4 275 150s-55.9 124.5-124.5 124.5zm0-248C82.4 26.5 27 81.9 27 150s55.4 123.5 123.5 123.5S274 218.1 274 150 218.6 26.5 150.5 26.5z"/><path class="st2" d="M50.7 223.6c2-.5 0 0 0 0 15.8-23.2 36-51.7 51.7-75 4.7-7 9.7-7.8 16.8-3.1 10 6.8 20.1 13.5 30 20.4 2.6 1.8 4 2 6-1 11-16.7 22.3-33.3 33.6-49.8 2-2.9 2-4.6-1-6.6-4.1-2.8-8.1-5.9-12-9-3.1-2.5-2.4-4.9 1-6.1 16.6-5.8 33.2-11.5 49.8-17.2 3.2-1.1 4.7.4 4.5 3.5-.8 17.6-1.5 35.1-2.4 52.7-.2 4-2.7 4.6-5.7 2.5-4.5-3.1-8.9-6.4-13.2-9.9-2.4-2-3.5-1.5-5.1 1-13 19.5-26.2 38.8-39.3 58.2-5.8 8.6-10 9.4-18.4 3.7-9.8-6.6-19.6-13.1-29.2-19.9-2.8-2-4.2-1.6-6.1 1.2-14.6 21.7-33.1 47.9-47.7 69.6-6.3-5.9-13.3-15.2-13.3-15.2z"/><path class="st2" d="M64.1 238.9c-6.3-6-13.4-15.4-13.4-15.4"/><path class="st1" d="M63.7 239.3c-6.3-6-13.4-15.3-13.5-15.4l.8-.6c.1.1 7.1 9.4 13.4 15.3l-.7.7z"/></svg>